<svg id="ic_account_box_copy" data-name="ic_account_box copy" xmlns="http://www.w3.org/2000/svg" width="18" height="18" viewBox="0 0 18 18">
  <g id="Icon_24px" data-name="Icon 24px">
    <path id="Shape" d="M12,13.5H1.5A1.5,1.5,0,0,1,0,12V1.5A1.5,1.5,0,0,1,1.5,0H12a1.5,1.5,0,0,1,1.5,1.5V12A1.5,1.5,0,0,1,12,13.5ZM6.75,8.175a8.018,8.018,0,0,0-2.813.6C3.168,9.1,2.25,9.66,2.25,10.5v.75h9V10.5c0-.84-.918-1.4-1.687-1.725A8.018,8.018,0,0,0,6.75,8.175Zm0-5.925A2.25,2.25,0,1,0,9,4.5,2.253,2.253,0,0,0,6.75,2.25Z" transform="translate(2.25 2.25)" fill="#fff"/>
    <path id="Shape-2" data-name="Shape" d="M0,0H18V18H0Z" fill="none"/>
  </g>
</svg>
