<svg xmlns="http://www.w3.org/2000/svg" width="18.46" height="18.46" fill="#0095d9"><defs><style>.cls-1{fill:none}</style></defs><g id="Layer_2" data-name="Layer 2"><g id="Layer_1-2" data-name="Layer 1"><g id="search_field" data-name="search field"><g id="Group_4024" data-name="Group 4024"><g id="Rectangle_1407" data-name="Rectangle 1407"><path class="cls-1" d="M14.63 8.32A6.32 6.32 0 1 1 8.32 2a6.3 6.3 0 0 1 6.31 6.32Z"/><path class="cls-1" d="M18.17 18.17a1 1 0 0 1-.71.29 1 1 0 0 1-.71-.29l-3.31-3.31a8.25 8.25 0 1 1 1.42-1.41l3.31 3.31a1 1 0 0 1 0 1.41Z"/></g><g id="icon_and_copy" data-name="icon and copy"><g id="Icon_feather-search" data-name="Icon feather-search"><path d="m18.17 16.76-3.31-3.31a8.38 8.38 0 1 0-1.42 1.41l3.31 3.31a1 1 0 0 0 .71.29 1 1 0 0 0 .71-.29 1 1 0 0 0 0-1.41Zm-5.39-4a6.31 6.31 0 1 1 1.85-4.46 6.3 6.3 0 0 1-1.85 4.48Z" id="Path_2027" data-name="Path 2027"/></g></g></g></g></g></g></svg>