<?xml version="1.0" encoding="UTF-8"?>
<svg width="8px" height="17px" viewBox="0 0 8 17" version="1.1" xmlns="http://www.w3.org/2000/svg" xmlns:xlink="http://www.w3.org/1999/xlink">
    <!-- Generator: Sketch 52.5 (67469) - http://www.bohemiancoding.com/sketch -->
    <title>facebook-letter-logo</title>
    <desc>Created with Sketch.</desc>
    <g id="Symbols" stroke="none" stroke-width="1" fill="none" fill-rule="evenodd">
        <g id="Footer" transform="translate(-1413.000000, -327.000000)" fill="#00AEEF">
            <g id="Group-2">
                <g id="social-" transform="translate(1413.000000, 327.000000)">
                    <g id="facebook-letter-logo">
                        <path d="M1.60015326,3.66211432 C1.60015326,4.060939 1.60015326,5.84106068 1.60015326,5.84106068 L0.00378749339,5.84106068 L0.00378749339,8.50548474 L1.60015326,8.50548474 L1.60015326,16.4232161 L4.87942743,16.4232161 L4.87942743,8.50570552 L7.07997265,8.50570552 C7.07997265,8.50570552 7.28606335,7.22813456 7.38596269,5.83123633 C7.09954777,5.83123633 4.89182746,5.83123633 4.89182746,5.83123633 C4.89182746,5.83123633 4.89182746,4.2811591 4.89182746,4.00946232 C4.89182746,3.73717681 5.24936776,3.37091601 5.60275019,3.37091601 C5.95547031,3.37091601 6.6999136,3.37091601 7.38942145,3.37091601 C7.38942145,3.00815077 7.38942145,1.75471756 7.38942145,0.59709941 C6.46894926,0.59709941 5.42175392,0.59709941 4.9601564,0.59709941 C1.51909313,0.596915434 1.60015326,3.26398876 1.60015326,3.66211432 Z" id="Facebook"></path>
                    </g>
                </g>
            </g>
        </g>
    </g>
</svg>