<?xml version="1.0" encoding="UTF-8"?>
<svg width="17px" height="17px" viewBox="0 0 17 17" version="1.1" xmlns="http://www.w3.org/2000/svg" xmlns:xlink="http://www.w3.org/1999/xlink">
    <!-- Generator: Sketch 52.5 (67469) - http://www.bohemiancoding.com/sketch -->
    <title>linkedin-letters</title>
    <desc>Created with Sketch.</desc>
    <g id="Symbols" stroke="none" stroke-width="1" fill="none" fill-rule="evenodd">
        <g id="Footer" transform="translate(-1436.000000, -327.000000)" fill="#00AEEF">
            <g id="Group-2">
                <g id="social-" transform="translate(1413.000000, 327.000000)">
                    <g id="linkedin-letters" transform="translate(23.000000, 0.000000)">
                        <rect id="Rectangle" x="0.301747142" y="5.90477958" width="3.46670962" height="10.4105787"></rect>
                        <path d="M15.1456491,6.85571831 C14.4174325,6.06079182 13.4542777,5.66325498 12.2567734,5.66325498 C11.8155605,5.66325498 11.4144913,5.7175281 11.0537498,5.82614794 C10.6931187,5.93469419 10.3885269,6.0869901 10.1398272,6.28310925 C9.8912747,6.47922841 9.69331578,6.66129174 9.5463552,6.82929926 C9.4066065,6.98888064 9.26994861,7.17477069 9.13660231,7.38505605 L9.13660231,5.90470599 L5.68023217,5.90470599 L5.69082923,6.4090229 C5.69793073,6.7452955 5.70142629,7.7817466 5.70142629,9.51852338 C5.70142629,11.2554473 5.69443517,13.5210099 5.68037936,16.3154319 L9.13660231,16.3154319 L9.13660231,10.5059263 C9.13660231,10.1488275 9.17490625,9.86524585 9.25210288,9.65496049 C9.39928423,9.29760416 9.62141769,8.99842127 9.91923916,8.75689666 C10.2170238,8.5150777 10.5863386,8.3942786 11.0276987,8.3942786 C11.6298177,8.3942786 12.0729439,8.60261381 12.356636,9.01932102 C12.6402177,9.43599143 12.7820269,10.0120593 12.7820269,10.7474509 L12.7820269,16.3151008 L16.2382498,16.3151008 L16.2382498,10.3485158 C16.2379923,8.81459175 15.8740864,7.65038724 15.1456491,6.85571831 Z" id="Path"></path>
                        <path d="M2.05611209,0.8937328 C1.47489292,0.8937328 1.00394938,1.06369047 0.643171089,1.40327465 C0.282429589,1.74293242 0.102169225,2.1717453 0.102169225,2.69011803 C0.102169225,3.20124208 0.277241446,3.62858314 0.627422684,3.97166288 C0.977493536,4.31477941 1.43979017,4.48642966 2.01405502,4.48642966 L2.03506516,4.48642966 C2.62342262,4.48642966 3.09797211,4.31492659 3.45860322,3.97166288 C3.81923433,3.62858314 3.99603593,3.20138926 3.98908162,2.69011803 C3.9820905,2.17178209 3.80337554,1.74293242 3.45330469,1.40327465 C3.10327063,1.06354329 2.63736806,0.8937328 2.05611209,0.8937328 Z" id="Path"></path>
                    </g>
                </g>
            </g>
        </g>
    </g>
</svg>