<?xml version="1.0" encoding="UTF-8"?>
<svg width="18px" height="18px" viewBox="0 0 18 18" version="1.1" xmlns="http://www.w3.org/2000/svg" xmlns:xlink="http://www.w3.org/1999/xlink">
    <!-- Generator: Sketch 52.5 (67469) - http://www.bohemiancoding.com/sketch -->
    <title>magnifier-tool</title>
    <desc>Created with Sketch.</desc>
    <g id="Homepage" stroke="none" stroke-width="1" fill="none" fill-rule="evenodd">
        <g id="Techlicious-home-5.1" transform="translate(-1257.000000, -153.000000)" fill="#00AEEF">
            <g id="magnifier-tool" transform="translate(1257.000000, 153.000000)">
                <path d="M14,7.00007694 C14,3.13438635 10.8657848,0 7.00003847,0 C3.13436913,0 0,3.13438635 0,7.00007694 C0,10.8657675 3.13436913,14 7.00003847,14 C10.8657848,14 14,10.8657675 14,7.00007694 Z M7.00003847,12.2499327 C4.10499907,12.2499327 1.75005771,9.89517073 1.75005771,7.00011541 C1.75005771,4.1050601 4.10499907,1.7501058 7.00003847,1.7501058 C9.89500093,1.7501058 12.2501346,4.1050601 12.2501346,7.00011541 C12.2501346,9.89517073 9.89500093,12.2499327 7.00003847,12.2499327 Z" id="Shape" fill-rule="nonzero"></path>
                <path d="M17.5062723,15.1237439 L13.3829464,11 C12.7685684,11.955517 11.9554974,12.7681972 11,13.3826248 L15.1236593,17.5063687 C15.781969,18.1645438 16.8493331,18.1645438 17.5062353,17.5063687 C18.1645821,16.8492679 18.1645821,15.7818819 17.5062723,15.1237439 Z" id="Path"></path>
            </g>
        </g>
    </g>
</svg>