<?xml version="1.0" encoding="UTF-8"?>
<svg width="15px" height="13px" viewBox="0 0 15 13" version="1.1" xmlns="http://www.w3.org/2000/svg" xmlns:xlink="http://www.w3.org/1999/xlink">
    <!-- Generator: Sketch 52.5 (67469) - http://www.bohemiancoding.com/sketch -->
    <title>photo-camera</title>
    <desc>Created with Sketch.</desc>
    <g id="Reviews(subcategory)-page" stroke="none" stroke-width="1" fill="none" fill-rule="evenodd">
        <g id="Techlicious-Reviews--subcategory-1.0" transform="translate(-1003.000000, -565.000000)" fill="#00AEEF">
            <g id="photo-camera" transform="translate(1003.000000, 565.000000)">
                <path d="M14.414273,2.58598988 C14.0235969,2.19540293 13.552361,2.00005473 13.0002371,2.00005473 L11.2502257,2.00005473 L10.8518603,0.937638528 C10.7528572,0.682473663 10.5719537,0.462388836 10.3087939,0.277411411 C10.0457435,0.0925160761 9.77623523,0 9.50015959,0 L5.50005927,0 C5.224011,0 4.95444801,0.0925160761 4.69139765,0.277411411 C4.42834729,0.462388836 4.24741637,0.682473663 4.14844069,0.937638528 L3.75002051,2.00005473 L2.00000912,2.00005473 C1.44783048,2.00005473 0.976567271,2.19540293 0.585891108,2.58598988 C0.195297036,2.97660419 0,3.44791353 0,4.00002736 L0,10.9999726 C0,11.5521138 0.195297036,12.0234779 0.585891108,12.4139828 C0.976567271,12.8046518 1.44785785,13 2.00000912,13 L13.0000456,13 C13.5521695,13 14.023378,12.8046518 14.4140815,12.4139828 C14.8046482,12.0234779 15,11.5521138 15,10.9999726 L15,4.00002736 C15.0001094,3.44791353 14.8047576,2.97660419 14.414273,2.58598988 Z M9.97262844,9.97255037 C9.28774144,10.6574621 8.46360036,11 7.49998632,11 C6.53637227,11 5.71228593,10.6574621 5.02734419,9.97255037 C4.34240246,9.28774813 4,8.46341873 4,7.50002736 C4,6.53633499 4.34251191,5.71227923 5.02734419,5.02734018 C5.71220384,4.34240112 6.53639964,4 7.49998632,4 C8.463573,4 9.28774144,4.34248321 9.97262844,5.02734018 C10.6575428,5.71219714 11,6.53633499 11,7.50002736 C11,8.46341873 10.6575702,9.28766604 9.97262844,9.97255037 Z" id="Shape" fill-rule="nonzero"></path>
                <path d="M7.5,6 C7.08680133,6 6.73350927,6.14670453 6.44010556,6.44015007 C6.14670185,6.73355913 6,7.08680292 6,7.50010033 C6,7.91323357 6.14670185,8.26653208 6.44010556,8.55994114 C6.73350927,8.85329547 7.08678309,9 7.5,9 C7.91314394,9 8.26647249,8.85329547 8.5598762,8.55994114 C8.8532799,8.26653208 9,7.91325181 9,7.50010033 C9,7.08682116 8.8532799,6.73357737 8.5598762,6.44015007 C8.26649073,6.14672277 7.91314394,6 7.5,6 Z" id="Path"></path>
            </g>
        </g>
    </g>
</svg>