<?xml version="1.0" encoding="UTF-8"?>
<svg width="13px" height="15px" viewBox="0 0 13 15" version="1.1" xmlns="http://www.w3.org/2000/svg" xmlns:xlink="http://www.w3.org/1999/xlink">
    <!-- Generator: Sketch 52.5 (67469) - http://www.bohemiancoding.com/sketch -->
    <title>pinterest</title>
    <desc>Created with Sketch.</desc>
    <g id="Symbols" stroke="none" stroke-width="1" fill="none" fill-rule="evenodd">
        <g id="Footer" transform="translate(-1532.000000, -329.000000)" fill="#00AEEF">
            <g id="Group-2">
                <g id="social-" transform="translate(1413.000000, 327.000000)">
                    <g id="pinterest" transform="translate(119.000000, 2.000000)">
                        <path d="M11.3140245,1.53711234 C10.1754949,0.545913876 8.59989413,0 6.87748268,0 C4.24641345,0 2.6281885,0.978087632 1.73398772,1.79855497 C0.631947408,2.80968577 0,4.15226429 0,5.48211901 C0,7.15183946 0.770115886,8.43341148 2.05977726,8.9101911 C2.14635928,8.94236344 2.23347477,8.95857056 2.31888316,8.95857056 C2.59095237,8.95857056 2.8065272,8.79712829 2.88121286,8.53815302 C2.92474393,8.38957968 3.02562293,8.02305686 3.06947408,7.8639368 C3.16336463,7.54971218 3.08750533,7.39857473 2.88275992,7.17975441 C2.50975838,6.77951111 2.33606086,6.30621481 2.33606086,5.69024746 C2.33606086,3.86063288 3.83830964,1.91611707 6.62259118,1.91611707 C8.83179311,1.91611707 10.2041422,3.05482452 10.2041422,4.88782567 C10.2041422,6.04453028 9.92940563,7.11574838 9.43039871,7.90428527 C9.08364384,8.45218271 8.47388874,9.10530548 7.53781064,9.10530548 C7.13301435,9.10530548 6.76940186,8.95450669 6.53995683,8.69161268 C6.32320836,8.44308737 6.25177686,8.12204124 6.3389457,7.78744887 C6.43742408,7.40941173 6.57169824,7.01507072 6.70165129,6.63384054 C6.93867158,5.93756329 7.16272857,5.27994123 7.16272857,4.75526594 C7.16272857,3.85782687 6.55436049,3.25482523 5.64901021,3.25482523 C4.49842421,3.25482523 3.5970216,4.31462577 3.5970216,5.6675575 C3.5970216,6.33108185 3.79147106,6.8273584 3.87949345,7.01792511 C3.73454992,7.5748695 2.87310413,10.8860084 2.70970257,11.5103938 C2.61522521,11.8748847 2.0460671,14.7537047 2.98812006,14.9832653 C4.04657595,15.2411762 4.99268327,12.4373927 5.08897443,12.1205556 C5.16702094,11.8628866 5.44010374,10.8885725 5.60745297,10.2896348 C6.11840961,10.7359837 6.94112554,11.0377264 7.74164916,11.0377264 C9.25077969,11.0377264 10.6079782,10.4218558 11.5632612,9.30366128 C12.4897369,8.21909045 13,6.7074257 13,5.04733276 C13,3.74950525 12.3854437,2.47006193 11.3140245,1.53711234 Z" id="XMLID_799_"></path>
                    </g>
                </g>
            </g>
        </g>
    </g>
</svg>