<?xml version="1.0" encoding="UTF-8"?>
<svg width="16px" height="16px" viewBox="0 0 16 16" version="1.1" xmlns="http://www.w3.org/2000/svg" xmlns:xlink="http://www.w3.org/1999/xlink">
    <!-- Generator: Sketch 52.5 (67469) - http://www.bohemiancoding.com/sketch -->
    <title>star (1)</title>
    <desc>Created with Sketch.</desc>
    <g id="Homepage" stroke="none" stroke-width="1" fill="none" fill-rule="evenodd">
        <g id="Techlicious-home-5.1" transform="translate(-473.000000, -4112.000000)" fill="#00AEEF" fill-rule="nonzero">
            <g id="Group-10-Copy" transform="translate(375.000000, 4112.000000)">
                <g id="star-(1)" transform="translate(98.000000, 0.000000)">
                    <path d="M3.22485714,15.2994286 C3.16571429,15.2994286 3.10657143,15.2811429 3.05685714,15.2448571 C2.96885714,15.1808571 2.92485714,15.0725714 2.94342857,14.9654286 L3.82657143,9.81742857 L0.0862857143,6.172 C0.00857142857,6.096 -0.0194285714,5.98257143 0.014,5.87942857 C0.0477142857,5.776 0.137142857,5.70057143 0.244857143,5.68485714 L5.41342857,4.93371429 L7.72514286,0.25 C7.77314286,0.152285714 7.87257143,0.0905714286 7.98114286,0.0905714286 C8.09,0.0905714286 8.18942857,0.152285714 8.23714286,0.25 L10.5485714,4.93371429 L15.7174286,5.68485714 C15.8251429,5.70057143 15.9142857,5.77571429 15.9482857,5.87942857 C15.9817143,5.98257143 15.954,6.09628571 15.876,6.172 L12.1357143,9.818 L13.0185714,14.9657143 C13.0368571,15.0728571 12.9928571,15.1811429 12.9051429,15.2451429 C12.8171429,15.3097143 12.7002857,15.318 12.604,15.2668571 L7.98114286,12.8365714 L3.35771429,15.2668571 C3.316,15.2885714 3.27028571,15.2994286 3.22485714,15.2994286 Z M0.899714286,6.16685714 L4.33285714,9.51342857 C4.4,9.57885714 4.43085714,9.67371429 4.41485714,9.76628571 L3.60428571,14.4914286 L7.84828571,12.2605714 C7.93142857,12.2165714 8.03057143,12.2165714 8.11428571,12.2605714 L12.3577143,14.4914286 L11.5474286,9.76628571 C11.5314286,9.67371429 11.5622857,9.57914286 11.6294286,9.51342857 L15.0625714,6.16685714 L10.3182857,5.47742857 C10.2251429,5.464 10.1448571,5.40542857 10.1031429,5.32114286 L7.98114286,1.02228571 L5.85914286,5.32142857 C5.81742857,5.40571429 5.73714286,5.46428571 5.644,5.47771429 L0.899714286,6.16685714 Z" id="Shape"></path>
                </g>
            </g>
        </g>
    </g>
</svg>