<?xml version="1.0" encoding="UTF-8"?>
<svg width="16px" height="16px" viewBox="0 0 16 16" version="1.1" xmlns="http://www.w3.org/2000/svg" xmlns:xlink="http://www.w3.org/1999/xlink">
    <!-- Generator: Sketch 52.5 (67469) - http://www.bohemiancoding.com/sketch -->
    <title>star (2)</title>
    <desc>Created with Sketch.</desc>
    <g id="Homepage" stroke="none" stroke-width="1" fill="none" fill-rule="evenodd">
        <g id="Techlicious-home-5.1" transform="translate(-375.000000, -4112.000000)" fill="#00AEEF">
            <g id="Group-10-Copy" transform="translate(375.000000, 4112.000000)">
                <g id="star-(2)">
                    <path d="M15.948,5.87942857 C15.9142857,5.776 15.8248571,5.70057143 15.7171429,5.68485714 L10.5485714,4.93371429 L8.23714286,0.250285714 C8.18914286,0.152571429 8.08971429,0.0908571429 7.98114286,0.0908571429 C7.87257143,0.0908571429 7.77285714,0.152571429 7.72514286,0.250285714 L5.41342857,4.934 L0.244857143,5.68514286 C0.137142857,5.70085714 0.048,5.776 0.014,5.87971429 C-0.0194285714,5.98285714 0.00828571429,6.09657143 0.0862857143,6.17228571 L3.82657143,9.818 L2.94342857,14.966 C2.92514286,15.0731429 2.96914286,15.1814286 3.05685714,15.2454286 C3.14514286,15.31 3.262,15.3182857 3.35771429,15.2671429 L7.98114286,12.8368571 L12.604,15.2671429 C12.6457143,15.2891429 12.6917143,15.3 12.7371429,15.3 C12.7962857,15.3 12.8551429,15.2817143 12.9051429,15.2454286 C12.9931429,15.1814286 13.0371429,15.0731429 13.0185714,14.966 L12.1357143,9.81828571 L15.876,6.17228571 C15.9537143,6.096 15.9817143,5.98257143 15.948,5.87942857 Z" id="Path"></path>
                </g>
            </g>
        </g>
    </g>
</svg>