<?xml version="1.0" encoding="UTF-8"?>
<svg width="257px" height="64px" viewBox="0 0 257 64" version="1.1" xmlns="http://www.w3.org/2000/svg" xmlns:xlink="http://www.w3.org/1999/xlink">
    <!-- Generator: Sketch 52.5 (67469) - http://www.bohemiancoding.com/sketch -->
    <title>Tech-logo-02</title>
    <desc>Created with Sketch.</desc>
    <defs>
        <linearGradient x1="109.330304%" y1="2.16209106%" x2="3.4422031%" y2="87.5529681%" id="linearGradient-1">
            <stop stop-color="#00AEEF" offset="2%"></stop>
            <stop stop-color="#2E3192" offset="97%"></stop>
        </linearGradient>
    </defs>
    <g id="Homepage" stroke="none" stroke-width="1" fill="none" fill-rule="evenodd">
        <g id="Techlicious-home-5.1" transform="translate(-375.000000, -126.000000)">
            <g id="Tech-logo-02-2-Copy" transform="translate(375.000000, 126.000000)">
                <g id="Tech-logo-02">
                    <polygon id="Path" fill="#FFFFFF" points="76.2824952 45.0166154 76.2824952 45.7403077 77.4573524 45.7403077 77.4573524 52.0516923 78.4364 52.0516923 78.4364 45.7403077 79.5769905 45.7403077 79.5769905 45.0166154"></polygon>
                    <polygon id="Path" fill="#FFFFFF" points="84.379219 51.3476923 84.379219 48.7630769 85.7841524 48.7630769 85.7841524 48.0738462 84.379219 48.0738462 84.379219 45.7403077 86.1170286 45.7403077 86.1170286 45.0166154 83.4001714 45.0166154 83.4001714 52.0516923 86.1561905 52.0516923 86.1561905 51.3476923"></polygon>
                    <path d="M93.5724762,47.5323077 L93.5724762,46.9809231 C93.612723,46.4445227 93.4674623,45.9106103 93.1612762,45.4695385 C92.8122816,45.1019266 92.3123314,44.9197551 91.8101905,44.9772308 C91.2514598,44.9168798 90.6998901,45.1424604 90.341619,45.5778462 C90.0386911,46.107732 89.8973948,46.7155083 89.9353143,47.3255385 L89.9353143,49.7870769 C89.8999488,50.3894044 90.0467152,50.9883899 90.3563048,51.5052308 C90.7058122,51.9540389 91.2615292,52.1887674 91.8248762,52.1255385 C92.3463728,52.1809856 92.8608648,51.9703226 93.1955429,51.5643077 C93.488362,51.0812843 93.6251746,50.5188827 93.5871619,49.9544615 L93.5871619,49.4621538 L92.6668571,49.4621538 L92.6668571,49.9544615 C92.6685067,50.2176924 92.6537923,50.4807695 92.6228,50.7421538 C92.5963271,50.9150708 92.5137102,51.0743204 92.3878286,51.1950769 C92.228097,51.3124058 92.0318516,51.3682957 91.8346667,51.3526154 C91.6466705,51.3629062 91.459711,51.3184644 91.2961905,51.2246154 C91.1518951,51.1201356 91.0508411,50.9659404 91.0122667,50.7913846 C90.9496523,50.5153697 90.9216946,50.2325488 90.9290476,49.9495385 L90.9290476,47.1581538 C90.9226732,46.889175 90.9439995,46.6202549 90.9926857,46.3556923 C91.0170385,46.166499 91.1072187,45.9920893 91.2472381,45.8633846 C91.4160966,45.7368228 91.6246303,45.6756546 91.8346667,45.6910769 C92.0374635,45.6722046 92.2399623,45.7301396 92.4025143,45.8535385 C92.5241715,45.9613869 92.6025019,46.1101857 92.6228,46.272 C92.6570482,46.5182294 92.6717803,46.7668072 92.6668571,47.0153846 L92.6668571,47.5076923 L93.5724762,47.5323077 Z" id="Path" fill="#FFFFFF"></path>
                    <polygon id="Path" fill="#FFFFFF" points="100.420914 45.0166154 100.420914 48.0590769 98.6292571 48.0590769 98.6292571 45.0166154 97.6502095 45.0166154 97.6502095 52.0516923 98.6292571 52.0516923 98.6292571 48.7384615 100.420914 48.7384615 100.420914 52.032 101.399962 52.032 101.399962 45.0166154"></polygon>
                    <polygon id="Path" fill="#FFFFFF" points="115.258381 45.0166154 114.30381 45.0166154 113.08 50.7076923 111.8464 45.0018462 110.867352 45.0018462 110.740076 52.0369231 111.533105 52.0369231 111.611429 46.9415385 112.791181 52.0516923 113.339448 52.0516923 114.548571 46.9415385 114.626895 52.0516923 115.415029 52.0516923"></polygon>
                    <path d="M121.651562,45.0166154 L120.701886,45.0166154 L119.233314,52.0516923 L120.143829,52.0516923 L120.4816,50.2793846 L121.891429,50.2793846 L122.214514,52.0516923 L123.134819,52.0516923 L121.651562,45.0166154 Z M120.603981,49.5753846 L121.181619,46.4098462 L121.769048,49.5753846 L120.603981,49.5753846 Z" id="Shape" fill="#FFFFFF" fill-rule="nonzero"></path>
                    <path d="M130.115429,45.5384615 C129.677221,45.1447878 129.094205,44.9553027 128.50979,45.0166154 L126.987371,45.0166154 L126.987371,52.0516923 L128.59301,52.0516923 C129.162442,52.1083881 129.726029,51.8976578 130.120324,51.4806154 C130.467467,50.9732864 130.631571,50.3617828 130.585371,49.7476923 L130.585371,47.1581538 C130.630398,46.5786838 130.463264,46.0026449 130.115429,45.5384615 Z M129.596533,49.5704615 C129.60491,49.914318 129.586907,50.2583122 129.542686,50.5993846 C129.516562,50.8099789 129.415746,51.0040181 129.258762,51.1458462 C129.04394,51.2991012 128.781974,51.3706356 128.519581,51.3476923 L127.971314,51.3476923 L127.971314,45.7403077 L128.49021,45.7403077 C128.743242,45.7226679 128.996082,45.7772779 129.2196,45.8978462 C129.385858,46.0109992 129.496257,46.1900748 129.523105,46.3901538 C129.582991,46.6898 129.607636,46.9954883 129.596533,47.3009231 L129.596533,49.5704615 Z" id="Shape" fill="#FFFFFF" fill-rule="nonzero"></path>
                    <polygon id="Path" fill="#FFFFFF" points="135.656838 51.3476923 135.656838 48.7630769 137.066667 48.7630769 137.066667 48.0738462 135.656838 48.0738462 135.656838 45.7403077 137.399543 45.7403077 137.399543 45.0166154 134.687581 45.0166154 134.687581 52.0516923 137.414229 52.0516923 137.414229 51.3476923"></polygon>
                    <path d="M149.515257,49.3686154 C149.322313,49.0334073 149.075898,48.7323696 148.785867,48.4775385 L147.601219,47.4387692 C147.455392,47.3215216 147.336776,47.1736686 147.253657,47.0055385 C147.175489,46.8431926 147.138491,46.6639135 147.145962,46.4836923 C147.130275,46.2719732 147.203003,46.063253 147.346667,45.9076923 C147.501551,45.7673019 147.706507,45.6962255 147.914514,45.7107692 C148.189314,45.6813965 148.457456,45.8086335 148.609638,46.0406154 C148.759768,46.3366346 148.840165,46.6634221 148.84461,46.9956923 L149.671905,46.7692308 C149.669979,46.2685113 149.497171,45.7836363 149.182381,45.3956923 C148.467025,44.8196917 147.450118,44.8196917 146.734762,45.3956923 C146.42328,45.7139516 146.262809,46.1514787 146.29419,46.5969231 C146.283895,46.8969016 146.337297,47.1956416 146.450838,47.4732308 C146.571321,47.7329925 146.746738,47.9631715 146.964838,48.1476923 L148.139695,49.1913846 C148.361612,49.3736584 148.557617,49.5856861 148.722229,49.8215385 C148.845749,50.0402027 148.906739,50.2889593 148.898457,50.5403077 C148.912938,50.7621522 148.844892,50.9814882 148.707543,51.1556923 C148.555418,51.308405 148.34406,51.3858629 148.129905,51.3673846 C147.827727,51.388434 147.542368,51.2255521 147.40541,50.9538462 C147.240258,50.6111142 147.150117,50.2367471 147.141067,49.856 L146.279505,50.0972308 C146.281251,50.6295479 146.452841,51.1472466 146.769029,51.5741538 C147.109443,51.953098 147.603639,52.1544398 148.110324,52.1206154 C148.548832,52.1403495 148.97759,51.9866035 149.304762,51.6923077 C149.620652,51.3676234 149.787445,50.9250709 149.764914,50.4713846 C149.784189,50.0876938 149.697798,49.7060959 149.515257,49.3686154 Z" id="Path" fill="#FFFFFF"></path>
                    <polygon id="Path" fill="#FFFFFF" points="153.744743 45.0166154 153.744743 52.0516923 154.72379 52.0516923 154.72379 45.0166154"></polygon>
                    <polygon id="Path" fill="#FFFFFF" points="163.500952 45.0166154 162.521905 45.0166154 161.278514 50.7076923 160.044914 45.0018462 159.095238 45.0018462 158.963067 52.0369231 159.756095 52.0369231 159.834419 46.9267692 161.009276 52.0369231 161.542857 52.0369231 162.727505 46.9267692 162.800933 52.0369231 163.589067 52.0369231"></polygon>
                    <path d="M170.868286,45.5089231 C170.525393,45.1538688 170.041711,44.9730387 169.551467,45.0166154 L167.818552,45.0166154 L167.818552,52.0516923 L168.7976,52.0516923 L168.7976,48.7778462 L169.561257,48.7778462 C170.040374,48.8045614 170.508274,48.625641 170.848705,48.2855385 C171.15698,47.9105902 171.312642,47.4321527 171.284381,46.9464615 C171.315358,46.4332858 171.168294,45.9252025 170.868286,45.5089231 Z M170.251486,47.6455385 C170.188052,47.7998746 170.064056,47.9210128 169.908819,47.9803077 C169.693922,48.0498495 169.468686,48.0814952 169.243067,48.0738462 L168.792705,48.0738462 L168.792705,45.7156923 L169.247962,45.7156923 C169.492599,45.7034118 169.737219,45.7402298 169.967562,45.824 C170.118817,45.8925124 170.233105,46.0236133 170.280857,46.1833846 C170.342261,46.4394619 170.366986,46.7030458 170.354286,46.9661538 C170.365726,47.1972599 170.330764,47.4283159 170.251486,47.6455385 Z" id="Shape" fill="#FFFFFF" fill-rule="nonzero"></path>
                    <polygon id="Path" fill="#FFFFFF" points="176.081714 51.3476923 176.081714 45.0166154 175.102667 45.0166154 175.102667 52.0516923 177.868476 52.0516923 177.868476 51.3476923"></polygon>
                    <polygon id="Path" fill="#FFFFFF" points="182.656019 51.3476923 182.656019 48.7630769 184.060952 48.7630769 184.060952 48.0738462 182.660914 48.0738462 182.660914 45.7403077 184.393829 45.7403077 184.393829 45.0166154 181.681867 45.0166154 181.681867 52.0516923 184.41341 52.0516923 184.41341 51.3476923"></polygon>
                    <path d="M188.677162,51.0129231 C188.425591,51.0252863 188.224408,51.2276139 188.212114,51.4806154 L188.212114,51.584 C188.19392,51.761638 188.277898,51.9341911 188.42855,52.0287181 C188.579201,52.1232451 188.770228,52.1232451 188.920879,52.0287181 C189.07153,51.9341911 189.155508,51.761638 189.137314,51.584 L189.137314,51.4806154 C189.125243,51.2293946 188.92682,51.0277208 188.677162,51.0129231 Z" id="Path" fill="#FFFFFF"></path>
                    <polygon id="Path" fill="#FFFFFF" points="76.2824952 45.0166154 76.2824952 45.7403077 77.4573524 45.7403077 77.4573524 52.0516923 78.4364 52.0516923 78.4364 45.7403077 79.5769905 45.7403077 79.5769905 45.0166154"></polygon>
                    <polygon id="Path" fill="#FFFFFF" points="84.379219 51.3476923 84.379219 48.7630769 85.7841524 48.7630769 85.7841524 48.0738462 84.379219 48.0738462 84.379219 45.7403077 86.1170286 45.7403077 86.1170286 45.0166154 83.4001714 45.0166154 83.4001714 52.0516923 86.1561905 52.0516923 86.1561905 51.3476923"></polygon>
                    <path d="M93.5724762,47.5323077 L93.5724762,46.9809231 C93.612723,46.4445227 93.4674623,45.9106103 93.1612762,45.4695385 C92.8122816,45.1019266 92.3123314,44.9197551 91.8101905,44.9772308 C91.2514598,44.9168798 90.6998901,45.1424604 90.341619,45.5778462 C90.0386911,46.107732 89.8973948,46.7155083 89.9353143,47.3255385 L89.9353143,49.7870769 C89.8999488,50.3894044 90.0467152,50.9883899 90.3563048,51.5052308 C90.7058122,51.9540389 91.2615292,52.1887674 91.8248762,52.1255385 C92.3463728,52.1809856 92.8608648,51.9703226 93.1955429,51.5643077 C93.488362,51.0812843 93.6251746,50.5188827 93.5871619,49.9544615 L93.5871619,49.4621538 L92.6668571,49.4621538 L92.6668571,49.9544615 C92.6685067,50.2176924 92.6537923,50.4807695 92.6228,50.7421538 C92.5963271,50.9150708 92.5137102,51.0743204 92.3878286,51.1950769 C92.228097,51.3124058 92.0318516,51.3682957 91.8346667,51.3526154 C91.6466705,51.3629062 91.459711,51.3184644 91.2961905,51.2246154 C91.1518951,51.1201356 91.0508411,50.9659404 91.0122667,50.7913846 C90.9496523,50.5153697 90.9216946,50.2325488 90.9290476,49.9495385 L90.9290476,47.1581538 C90.9226732,46.889175 90.9439995,46.6202549 90.9926857,46.3556923 C91.0170385,46.166499 91.1072187,45.9920893 91.2472381,45.8633846 C91.4160966,45.7368228 91.6246303,45.6756546 91.8346667,45.6910769 C92.0374635,45.6722046 92.2399623,45.7301396 92.4025143,45.8535385 C92.5241715,45.9613869 92.6025019,46.1101857 92.6228,46.272 C92.6570482,46.5182294 92.6717803,46.7668072 92.6668571,47.0153846 L92.6668571,47.5076923 L93.5724762,47.5323077 Z" id="Path" fill="#FFFFFF"></path>
                    <polygon id="Path" fill="#FFFFFF" points="100.420914 45.0166154 100.420914 48.0590769 98.6292571 48.0590769 98.6292571 45.0166154 97.6502095 45.0166154 97.6502095 52.0516923 98.6292571 52.0516923 98.6292571 48.7384615 100.420914 48.7384615 100.420914 52.032 101.399962 52.032 101.399962 45.0166154"></polygon>
                    <polygon id="Path" fill="#FFFFFF" points="115.258381 45.0166154 114.30381 45.0166154 113.08 50.7076923 111.8464 45.0018462 110.867352 45.0018462 110.740076 52.0369231 111.533105 52.0369231 111.611429 46.9415385 112.791181 52.0516923 113.339448 52.0516923 114.548571 46.9415385 114.626895 52.0516923 115.415029 52.0516923"></polygon>
                    <path d="M121.651562,45.0166154 L120.701886,45.0166154 L119.233314,52.0516923 L120.143829,52.0516923 L120.4816,50.2793846 L121.891429,50.2793846 L122.214514,52.0516923 L123.134819,52.0516923 L121.651562,45.0166154 Z M120.603981,49.5753846 L121.181619,46.4098462 L121.769048,49.5753846 L120.603981,49.5753846 Z" id="Shape" fill="#FFFFFF" fill-rule="nonzero"></path>
                    <path d="M130.115429,45.5384615 C129.677221,45.1447878 129.094205,44.9553027 128.50979,45.0166154 L126.987371,45.0166154 L126.987371,52.0516923 L128.59301,52.0516923 C129.162442,52.1083881 129.726029,51.8976578 130.120324,51.4806154 C130.467467,50.9732864 130.631571,50.3617828 130.585371,49.7476923 L130.585371,47.1581538 C130.630398,46.5786838 130.463264,46.0026449 130.115429,45.5384615 Z M129.596533,49.5704615 C129.60491,49.914318 129.586907,50.2583122 129.542686,50.5993846 C129.516562,50.8099789 129.415746,51.0040181 129.258762,51.1458462 C129.04394,51.2991012 128.781974,51.3706356 128.519581,51.3476923 L127.971314,51.3476923 L127.971314,45.7403077 L128.49021,45.7403077 C128.743242,45.7226679 128.996082,45.7772779 129.2196,45.8978462 C129.385858,46.0109992 129.496257,46.1900748 129.523105,46.3901538 C129.582991,46.6898 129.607636,46.9954883 129.596533,47.3009231 L129.596533,49.5704615 Z" id="Shape" fill="#FFFFFF" fill-rule="nonzero"></path>
                    <polygon id="Path" fill="#FFFFFF" points="135.656838 51.3476923 135.656838 48.7630769 137.066667 48.7630769 137.066667 48.0738462 135.656838 48.0738462 135.656838 45.7403077 137.399543 45.7403077 137.399543 45.0166154 134.687581 45.0166154 134.687581 52.0516923 137.414229 52.0516923 137.414229 51.3476923"></polygon>
                    <path d="M149.515257,49.3686154 C149.322313,49.0334073 149.075898,48.7323696 148.785867,48.4775385 L147.601219,47.4387692 C147.455392,47.3215216 147.336776,47.1736686 147.253657,47.0055385 C147.175489,46.8431926 147.138491,46.6639135 147.145962,46.4836923 C147.130275,46.2719732 147.203003,46.063253 147.346667,45.9076923 C147.501551,45.7673019 147.706507,45.6962255 147.914514,45.7107692 C148.189314,45.6813965 148.457456,45.8086335 148.609638,46.0406154 C148.759768,46.3366346 148.840165,46.6634221 148.84461,46.9956923 L149.671905,46.7692308 C149.669979,46.2685113 149.497171,45.7836363 149.182381,45.3956923 C148.467025,44.8196917 147.450118,44.8196917 146.734762,45.3956923 C146.42328,45.7139516 146.262809,46.1514787 146.29419,46.5969231 C146.283895,46.8969016 146.337297,47.1956416 146.450838,47.4732308 C146.571321,47.7329925 146.746738,47.9631715 146.964838,48.1476923 L148.139695,49.1913846 C148.361612,49.3736584 148.557617,49.5856861 148.722229,49.8215385 C148.845749,50.0402027 148.906739,50.2889593 148.898457,50.5403077 C148.912938,50.7621522 148.844892,50.9814882 148.707543,51.1556923 C148.555418,51.308405 148.34406,51.3858629 148.129905,51.3673846 C147.827727,51.388434 147.542368,51.2255521 147.40541,50.9538462 C147.240258,50.6111142 147.150117,50.2367471 147.141067,49.856 L146.279505,50.0972308 C146.281251,50.6295479 146.452841,51.1472466 146.769029,51.5741538 C147.109443,51.953098 147.603639,52.1544398 148.110324,52.1206154 C148.548832,52.1403495 148.97759,51.9866035 149.304762,51.6923077 C149.620652,51.3676234 149.787445,50.9250709 149.764914,50.4713846 C149.784189,50.0876938 149.697798,49.7060959 149.515257,49.3686154 Z" id="Path" fill="#FFFFFF"></path>
                    <polygon id="Path" fill="#FFFFFF" points="153.744743 45.0166154 153.744743 52.0516923 154.72379 52.0516923 154.72379 45.0166154"></polygon>
                    <polygon id="Path" fill="#FFFFFF" points="163.500952 45.0166154 162.521905 45.0166154 161.278514 50.7076923 160.044914 45.0018462 159.095238 45.0018462 158.963067 52.0369231 159.756095 52.0369231 159.834419 46.9267692 161.009276 52.0369231 161.542857 52.0369231 162.727505 46.9267692 162.800933 52.0369231 163.589067 52.0369231"></polygon>
                    <path d="M170.868286,45.5089231 C170.525393,45.1538688 170.041711,44.9730387 169.551467,45.0166154 L167.818552,45.0166154 L167.818552,52.0516923 L168.7976,52.0516923 L168.7976,48.7778462 L169.561257,48.7778462 C170.040374,48.8045614 170.508274,48.625641 170.848705,48.2855385 C171.15698,47.9105902 171.312642,47.4321527 171.284381,46.9464615 C171.315358,46.4332858 171.168294,45.9252025 170.868286,45.5089231 Z M170.251486,47.6455385 C170.188052,47.7998746 170.064056,47.9210128 169.908819,47.9803077 C169.693922,48.0498495 169.468686,48.0814952 169.243067,48.0738462 L168.792705,48.0738462 L168.792705,45.7156923 L169.247962,45.7156923 C169.492599,45.7034118 169.737219,45.7402298 169.967562,45.824 C170.118817,45.8925124 170.233105,46.0236133 170.280857,46.1833846 C170.342261,46.4394619 170.366986,46.7030458 170.354286,46.9661538 C170.365726,47.1972599 170.330764,47.4283159 170.251486,47.6455385 Z" id="Shape" fill="#FFFFFF" fill-rule="nonzero"></path>
                    <polygon id="Path" fill="#FFFFFF" points="176.081714 51.3476923 176.081714 45.0166154 175.102667 45.0166154 175.102667 52.0516923 177.868476 52.0516923 177.868476 51.3476923"></polygon>
                    <polygon id="Path" fill="#FFFFFF" points="182.656019 51.3476923 182.656019 48.7630769 184.060952 48.7630769 184.060952 48.0738462 182.660914 48.0738462 182.660914 45.7403077 184.393829 45.7403077 184.393829 45.0166154 181.681867 45.0166154 181.681867 52.0516923 184.41341 52.0516923 184.41341 51.3476923"></polygon>
                    <path d="M188.677162,51.0129231 C188.425591,51.0252863 188.224408,51.2276139 188.212114,51.4806154 L188.212114,51.584 C188.19392,51.761638 188.277898,51.9341911 188.42855,52.0287181 C188.579201,52.1232451 188.770228,52.1232451 188.920879,52.0287181 C189.07153,51.9341911 189.155508,51.761638 189.137314,51.584 L189.137314,51.4806154 C189.125243,51.2293946 188.92682,51.0277208 188.677162,51.0129231 Z" id="Path" fill="#FFFFFF"></path>
                    <path d="M183.767238,28.7852308 C183.5981,29.8912156 182.999505,30.8845143 182.102857,31.5470769 C180.326706,32.7503001 178.040205,32.8861199 176.135562,31.9015385 C175.316352,31.4379551 174.65203,30.7407329 174.226419,29.8978462 C173.942289,29.3635624 173.745592,28.7867381 173.643886,28.1895385 C173.540294,27.6510866 173.491091,27.1034823 173.497029,26.5550769 C173.497029,26.3483077 173.497029,26.1513846 173.497029,25.9593846 C173.528084,25.0036453 173.770566,24.0668827 174.206838,23.2172308 C174.630989,22.3733036 175.295675,21.6756995 176.115981,21.2135385 C176.927833,20.7738373 177.837369,20.548548 178.75941,20.5587692 C179.901928,20.5232645 181.027287,20.844904 181.980476,21.4793846 L184.036476,20.3963077 L184.442781,20.1747692 C184.3204,20.0615385 184.198019,19.9532308 184.065848,19.8498462 C182.560914,18.7009319 180.706185,18.1128129 178.818152,18.1858462 C177.358925,18.1652539 175.917973,18.5139971 174.627829,19.2 C173.408767,19.86949 172.40892,20.8801532 171.749429,22.1095385 C171.033927,23.4734713 170.676706,24.9986006 170.711638,26.5403077 C170.674302,28.0822668 171.031664,29.6079976 171.749429,30.9710769 C172.412312,32.1941608 173.411661,33.1991926 174.627829,33.8658462 C175.930047,34.5494878 177.383934,34.8883417 178.852419,34.8504615 C180.737877,34.9216337 182.590443,34.3394145 184.100114,33.2012308 C185.486751,32.0941134 186.402175,30.4975333 186.660324,28.736 L183.767238,28.7852308 Z" id="Path" fill="#FFFFFF"></path>
                    <path d="M144.409524,19.9483077 C143.172505,18.7112318 141.477444,18.050772 139.734571,18.1267692 C138.421188,18.1096068 137.132023,18.4829703 136.028876,19.2 C134.95003,19.9250913 134.156994,21.0064793 133.786857,22.2572308 L133.786857,12.7212308 L131.040629,12.7212308 L131.040629,34.6978462 L133.786857,34.6978462 L133.786857,26.0529231 C133.786857,24.2116923 134.237219,22.8086154 135.142838,21.8535385 C136.089416,20.8729891 137.407708,20.3462567 138.765314,20.4061538 C140.040267,20.3417717 141.283524,20.8186823 142.191981,21.7206154 C143.038857,22.592 143.454952,23.8326154 143.454952,25.4572308 L143.454952,34.6978462 L146.201211,34.6978462 L146.201181,25.2209231 C146.206076,22.9218462 145.618648,21.1692308 144.409524,19.9483077 Z" id="Path" fill="#FFFFFF"></path>
                    <polygon id="Path" fill="#FFFFFF" points="152.692267 12.7212308 152.692267 34.6978462 155.4336 34.6978462 155.4336 12.7212308"></polygon>
                    <path d="M162.096019,18.3926154 L162.096019,34.6978462 L164.842248,34.6978462 L164.842248,18.3926154 L162.096019,18.3926154 Z M164.842248,12.4061538 C164.040171,11.7956564 162.932362,11.7956564 162.130286,12.4061538 C161.796686,12.714855 161.617235,13.1570114 161.640762,13.6123077 C161.616005,14.0649472 161.795912,14.5046066 162.130286,14.8086154 C162.927743,15.4327952 164.04479,15.4327952 164.842248,14.8086154 C165.183349,14.5075799 165.372032,14.0684301 165.356248,13.6123077 C165.370836,13.153571 165.182619,12.7119001 164.842248,12.4061538 Z" id="Shape" fill="#FFFFFF" fill-rule="nonzero"></path>
                    <path d="M192.495448,18.3926154 L192.495448,34.6978462 L195.236781,34.6978462 L195.236781,18.3926154 L192.495448,18.3926154 Z M195.236781,12.4061538 C194.858369,12.0870318 194.374031,11.9234953 193.8808,11.9483077 C193.386308,11.9251536 192.901023,12.0884205 192.519924,12.4061538 C192.188036,12.7160482 192.008926,13.1573635 192.0304,13.6123077 C192.007758,14.0645847 192.187306,14.5033676 192.519924,14.8086154 C192.894461,15.141354 193.381327,15.3174818 193.8808,15.3009231 C194.379158,15.3197771 194.865322,15.1432685 195.236781,14.8086154 C195.577882,14.5075799 195.766565,14.0684301 195.750781,13.6123077 C195.765369,13.153571 195.577152,12.7119001 195.236781,12.4061538 Z" id="Shape" fill="#FFFFFF" fill-rule="nonzero"></path>
                    <path d="M216.628971,22.1046154 C215.949628,20.8700381 214.929551,19.8595486 213.691829,19.1950769 C211.003361,17.8493628 207.843001,17.8493628 205.154533,19.1950769 C203.90516,19.8590547 202.870732,20.8686173 202.173333,22.1046154 C201.432,23.460336 201.058865,24.9885344 201.091486,26.5353846 C201.0478,28.0990852 201.421359,29.6460147 202.173333,31.0153846 C202.871589,32.2435521 203.901939,33.2473274 205.144743,33.9101538 C207.833211,35.2558679 210.99357,35.2558679 213.682038,33.9101538 C214.9169,33.2485201 215.936479,32.2436511 216.619181,31.0153846 C217.357325,29.6588062 217.727085,28.1306028 217.691238,26.5846154 C217.735953,25.0232261 217.369487,23.4776924 216.628971,22.1046154 Z M214.181352,29.8732308 C213.710518,30.7212608 213.006984,31.415124 212.154724,31.872 C210.440571,32.7449063 208.415581,32.7449063 206.701429,31.872 C205.848636,31.4175717 205.146064,30.7229805 204.679695,29.8732308 C204.141608,28.8529659 203.876747,27.7094531 203.911143,26.5550769 C203.874458,25.3941894 204.139353,24.24374 204.679695,23.2172308 C205.142048,22.3631864 205.845539,21.6659735 206.701429,21.2135385 C208.415581,20.3406322 210.440571,20.3406322 212.154724,21.2135385 C213.009332,21.6694481 213.713515,22.3656615 214.181352,23.2172308 C214.721694,24.24374 214.98659,25.3941894 214.949905,26.5550769 C214.978289,27.7112044 214.706656,28.8548202 214.161771,29.8732308 L214.181352,29.8732308 Z" id="Shape" fill="#FFFFFF" fill-rule="nonzero"></path>
                    <path d="M235.519695,18.3926154 L235.519695,27.0769231 C235.519695,28.9181538 235.067702,30.3179487 234.163714,31.2763077 C233.221249,32.2457536 231.91248,32.7650753 230.565714,32.704 C229.289105,32.7670216 228.04516,32.2862725 227.139048,31.3796923 C226.29054,30.5033846 225.867917,29.2529231 225.871181,27.6283077 L225.871181,18.3926154 L223.129848,18.3926154 L223.129848,27.8941538 C223.129848,30.1686154 223.72054,31.9146667 224.901924,33.1323077 C226.124828,34.3540496 227.795395,35.0132489 229.518133,34.9538462 C230.84766,34.9814167 232.155631,34.6131707 233.277676,33.8953846 C234.360211,33.1807975 235.15487,32.1024297 235.519695,30.8529231 L235.519695,34.688 L238.265924,34.688 L238.265924,18.3926154 L235.519695,18.3926154 Z" id="Path" fill="#FFFFFF"></path>
                    <path d="M256.020952,27.8596923 C255.504405,27.2412807 254.838602,26.7666346 254.087333,26.4812308 C253.121097,26.1307451 252.131421,25.8494278 251.125714,25.6393846 C250.356688,25.4747873 249.596864,25.2693717 248.849429,25.024 C248.331188,24.8584344 247.858507,24.5735497 247.468971,24.192 C247.087356,23.8146228 246.882769,23.292196 246.906019,22.7544615 C246.8779,22.0316226 247.185413,21.3366922 247.73821,20.8738462 C248.402915,20.3723858 249.224641,20.1277855 250.053657,20.1846154 C251.066498,20.134614 252.061459,20.4663982 252.843943,21.1150769 C253.532153,21.7302186 253.966901,22.5818339 254.062857,23.5027692 L256.6916,23.5027692 C256.508355,21.9957406 255.77153,20.6120447 254.62581,19.6233846 C253.341565,18.6151351 251.739641,18.1049162 250.1124,18.1858462 C248.346851,18.1858462 246.950076,18.6043077 245.922076,19.4412308 C244.9208,20.2411752 244.353011,21.4689555 244.389867,22.7544615 C244.337058,23.64122 244.608684,24.5167682 245.153524,25.216 C245.654052,25.8109221 246.297871,26.2668704 247.023505,26.5403077 C247.984568,26.8782503 248.965486,27.1561137 249.960648,27.3723077 C250.743943,27.5330131 251.517107,27.7401436 252.276095,27.9926154 C252.809044,28.1689991 253.295842,28.4634117 253.70061,28.8541538 C254.089345,29.2574431 254.294878,29.80449 254.268457,30.3655385 C254.295457,31.0780182 254.002468,31.7649452 253.470533,32.2363077 C252.847679,32.7441171 252.058242,32.9988059 251.257886,32.9501538 C250.156933,32.9950494 249.073846,32.6597631 248.188571,32 C247.434153,31.4215501 246.959131,30.5484093 246.881543,29.5975385 L244.228324,29.5975385 C244.382241,31.1466586 245.178476,32.5587193 246.42139,33.4867692 C247.838647,34.4667429 249.534721,34.9558195 251.25299,34.88 C252.706636,34.9546215 254.139965,34.5118938 255.301352,33.6295385 C256.298368,32.8609378 256.868229,31.6579746 256.833562,30.3950769 C256.870026,29.4798043 256.582037,28.5812615 256.020952,27.8596923 Z" id="Path" fill="#FFFFFF"></path>
                    <rect id="Rectangle" fill="#FFFFFF" x="76.2824952" y="12.5292308" width="2.76580952" height="5.65661538"></rect>
                    <path d="M83.351219,32.3298462 L83.351219,34.6978462 L81.3050095,34.6978462 C79.6161524,34.6978462 78.3678667,34.2892308 77.5258857,33.5064615 C76.6839048,32.7236923 76.2824952,31.3944615 76.2824952,29.5384615 L76.2824952,20.5292308 L79.0483048,20.5292308 L79.0483048,29.5975385 C79.0483048,30.6461538 79.2441143,31.3649231 79.6308381,31.744 C80.0175619,32.1230769 80.7028952,32.3298462 81.6672571,32.3298462 L83.351219,32.3298462 Z" id="Path" fill="#FFFFFF"></path>
                    <rect id="Rectangle" fill="#FFFFFF" x="79.0483048" y="18.1858462" width="4.26864762" height="2.34338462"></rect>
                    <path d="M122.297733,28.7852308 C122.133991,29.8882929 121.542624,30.8812799 120.652933,31.5470769 C118.876782,32.7503001 116.590281,32.8861199 114.685638,31.9015385 C113.864978,31.4382516 113.199001,30.7410801 112.7716,29.8978462 C112.48747,29.3635624 112.290773,28.7867381 112.189067,28.1895385 C112.088106,27.6523746 112.038926,27.1066658 112.04221,26.56 C112.04221,26.3532308 112.04221,26.1513846 112.04221,25.9593846 C112.073265,25.0036453 112.315747,24.0668827 112.752019,23.2172308 C113.177965,22.3729562 113.844305,21.6754043 114.666057,21.2135385 C115.476377,20.7744444 116.384179,20.5491674 117.30459,20.5587692 C118.447189,20.522613 119.572741,20.8443077 120.525657,21.4793846 L122.586552,20.3963077 L122.987962,20.1747692 C122.867931,20.0600435 122.742121,19.951593 122.611029,19.8498462 C121.106095,18.7009319 119.251366,18.1128129 117.363333,18.1858462 C115.900779,18.1633843 114.456206,18.5121887 113.163219,19.2 C111.944158,19.86949 110.944311,20.8801532 110.284819,22.1095385 C109.567619,23.4730168 109.208707,24.9981708 109.242133,26.5403077 C109.206302,28.0826993 109.565355,29.6084551 110.284819,30.9710769 C110.947703,32.1941608 111.947051,33.1991926 113.163219,33.8658462 C114.464725,34.5466425 115.916296,34.8853492 117.382914,34.8504615 C119.268372,34.9216337 121.120938,34.3394145 122.63061,33.2012308 C124.019151,32.0957658 124.935046,30.4983634 125.190819,28.736 L122.297733,28.7852308 Z" id="Path" fill="#FFFFFF"></path>
                    <path d="M183.767238,28.7852308 C183.5981,29.8912156 182.999505,30.8845143 182.102857,31.5470769 C180.326706,32.7503001 178.040205,32.8861199 176.135562,31.9015385 C175.316352,31.4379551 174.65203,30.7407329 174.226419,29.8978462 C173.942289,29.3635624 173.745592,28.7867381 173.643886,28.1895385 C173.540294,27.6510866 173.491091,27.1034823 173.497029,26.5550769 C173.497029,26.3483077 173.497029,26.1513846 173.497029,25.9593846 C173.528084,25.0036453 173.770566,24.0668827 174.206838,23.2172308 C174.630989,22.3733036 175.295675,21.6756995 176.115981,21.2135385 C176.927833,20.7738373 177.837369,20.548548 178.75941,20.5587692 C179.901928,20.5232645 181.027287,20.844904 181.980476,21.4793846 L184.036476,20.3963077 L184.442781,20.1747692 C184.3204,20.0615385 184.198019,19.9532308 184.065848,19.8498462 C182.560914,18.7009319 180.706185,18.1128129 178.818152,18.1858462 C177.358925,18.1652539 175.917973,18.5139971 174.627829,19.2 C173.408767,19.86949 172.40892,20.8801532 171.749429,22.1095385 C171.033927,23.4734713 170.676706,24.9986006 170.711638,26.5403077 C170.674302,28.0822668 171.031664,29.6079976 171.749429,30.9710769 C172.412312,32.1941608 173.411661,33.1991926 174.627829,33.8658462 C175.930047,34.5494878 177.383934,34.8883417 178.852419,34.8504615 C180.737877,34.9216337 182.590443,34.3394145 184.100114,33.2012308 C185.486751,32.0941134 186.402175,30.4975333 186.660324,28.736 L183.767238,28.7852308 Z" id="Path" fill="#FFFFFF"></path>
                    <path d="M144.409524,19.9483077 C143.172505,18.7112318 141.477444,18.050772 139.734571,18.1267692 C138.421188,18.1096068 137.132023,18.4829703 136.028876,19.2 C134.95003,19.9250913 134.156994,21.0064793 133.786857,22.2572308 L133.786857,12.7212308 L131.040629,12.7212308 L131.040629,34.6978462 L133.786857,34.6978462 L133.786857,26.0529231 C133.786857,24.2116923 134.237219,22.8086154 135.142838,21.8535385 C136.089416,20.8729891 137.407708,20.3462567 138.765314,20.4061538 C140.040267,20.3417717 141.283524,20.8186823 142.191981,21.7206154 C143.038857,22.592 143.454952,23.8326154 143.454952,25.4572308 L143.454952,34.6978462 L146.201211,34.6978462 L146.201181,25.2209231 C146.206076,22.9218462 145.618648,21.1692308 144.409524,19.9483077 Z" id="Path" fill="#FFFFFF"></path>
                    <polygon id="Path" fill="#FFFFFF" points="152.692267 12.7212308 152.692267 34.6978462 155.4336 34.6978462 155.4336 12.7212308"></polygon>
                    <path d="M162.096019,18.3926154 L162.096019,34.6978462 L164.842248,34.6978462 L164.842248,18.3926154 L162.096019,18.3926154 Z M164.842248,12.4061538 C164.040171,11.7956564 162.932362,11.7956564 162.130286,12.4061538 C161.796686,12.714855 161.617235,13.1570114 161.640762,13.6123077 C161.616005,14.0649472 161.795912,14.5046066 162.130286,14.8086154 C162.927743,15.4327952 164.04479,15.4327952 164.842248,14.8086154 C165.183349,14.5075799 165.372032,14.0684301 165.356248,13.6123077 C165.370836,13.153571 165.182619,12.7119001 164.842248,12.4061538 Z" id="Shape" fill="#FFFFFF" fill-rule="nonzero"></path>
                    <path d="M192.495448,18.3926154 L192.495448,34.6978462 L195.236781,34.6978462 L195.236781,18.3926154 L192.495448,18.3926154 Z M195.236781,12.4061538 C194.858369,12.0870318 194.374031,11.9234953 193.8808,11.9483077 C193.386308,11.9251536 192.901023,12.0884205 192.519924,12.4061538 C192.188036,12.7160482 192.008926,13.1573635 192.0304,13.6123077 C192.007758,14.0645847 192.187306,14.5033676 192.519924,14.8086154 C192.894461,15.141354 193.381327,15.3174818 193.8808,15.3009231 C194.379158,15.3197771 194.865322,15.1432685 195.236781,14.8086154 C195.577882,14.5075799 195.766565,14.0684301 195.750781,13.6123077 C195.765369,13.153571 195.577152,12.7119001 195.236781,12.4061538 Z" id="Shape" fill="#FFFFFF" fill-rule="nonzero"></path>
                    <path d="M216.628971,22.1046154 C215.949628,20.8700381 214.929551,19.8595486 213.691829,19.1950769 C211.003361,17.8493628 207.843001,17.8493628 205.154533,19.1950769 C203.90516,19.8590547 202.870732,20.8686173 202.173333,22.1046154 C201.432,23.460336 201.058865,24.9885344 201.091486,26.5353846 C201.0478,28.0990852 201.421359,29.6460147 202.173333,31.0153846 C202.871589,32.2435521 203.901939,33.2473274 205.144743,33.9101538 C207.833211,35.2558679 210.99357,35.2558679 213.682038,33.9101538 C214.9169,33.2485201 215.936479,32.2436511 216.619181,31.0153846 C217.357325,29.6588062 217.727085,28.1306028 217.691238,26.5846154 C217.735953,25.0232261 217.369487,23.4776924 216.628971,22.1046154 Z M214.181352,29.8732308 C213.710518,30.7212608 213.006984,31.415124 212.154724,31.872 C210.440571,32.7449063 208.415581,32.7449063 206.701429,31.872 C205.848636,31.4175717 205.146064,30.7229805 204.679695,29.8732308 C204.141608,28.8529659 203.876747,27.7094531 203.911143,26.5550769 C203.874458,25.3941894 204.139353,24.24374 204.679695,23.2172308 C205.142048,22.3631864 205.845539,21.6659735 206.701429,21.2135385 C208.415581,20.3406322 210.440571,20.3406322 212.154724,21.2135385 C213.009332,21.6694481 213.713515,22.3656615 214.181352,23.2172308 C214.721694,24.24374 214.98659,25.3941894 214.949905,26.5550769 C214.978289,27.7112044 214.706656,28.8548202 214.161771,29.8732308 L214.181352,29.8732308 Z" id="Shape" fill="#FFFFFF" fill-rule="nonzero"></path>
                    <path d="M235.519695,18.3926154 L235.519695,27.0769231 C235.519695,28.9181538 235.067702,30.3179487 234.163714,31.2763077 C233.221249,32.2457536 231.91248,32.7650753 230.565714,32.704 C229.289105,32.7670216 228.04516,32.2862725 227.139048,31.3796923 C226.29054,30.5033846 225.867917,29.2529231 225.871181,27.6283077 L225.871181,18.3926154 L223.129848,18.3926154 L223.129848,27.8941538 C223.129848,30.1686154 223.72054,31.9146667 224.901924,33.1323077 C226.124828,34.3540496 227.795395,35.0132489 229.518133,34.9538462 C230.84766,34.9814167 232.155631,34.6131707 233.277676,33.8953846 C234.360211,33.1807975 235.15487,32.1024297 235.519695,30.8529231 L235.519695,34.688 L238.265924,34.688 L238.265924,18.3926154 L235.519695,18.3926154 Z" id="Path" fill="#FFFFFF"></path>
                    <path d="M256.020952,27.8596923 C255.504405,27.2412807 254.838602,26.7666346 254.087333,26.4812308 C253.121097,26.1307451 252.131421,25.8494278 251.125714,25.6393846 C250.356688,25.4747873 249.596864,25.2693717 248.849429,25.024 C248.331188,24.8584344 247.858507,24.5735497 247.468971,24.192 C247.087356,23.8146228 246.882769,23.292196 246.906019,22.7544615 C246.8779,22.0316226 247.185413,21.3366922 247.73821,20.8738462 C248.402915,20.3723858 249.224641,20.1277855 250.053657,20.1846154 C251.066498,20.134614 252.061459,20.4663982 252.843943,21.1150769 C253.532153,21.7302186 253.966901,22.5818339 254.062857,23.5027692 L256.6916,23.5027692 C256.508355,21.9957406 255.77153,20.6120447 254.62581,19.6233846 C253.341565,18.6151351 251.739641,18.1049162 250.1124,18.1858462 C248.346851,18.1858462 246.950076,18.6043077 245.922076,19.4412308 C244.9208,20.2411752 244.353011,21.4689555 244.389867,22.7544615 C244.337058,23.64122 244.608684,24.5167682 245.153524,25.216 C245.654052,25.8109221 246.297871,26.2668704 247.023505,26.5403077 C247.984568,26.8782503 248.965486,27.1561137 249.960648,27.3723077 C250.743943,27.5330131 251.517107,27.7401436 252.276095,27.9926154 C252.809044,28.1689991 253.295842,28.4634117 253.70061,28.8541538 C254.089345,29.2574431 254.294878,29.80449 254.268457,30.3655385 C254.295457,31.0780182 254.002468,31.7649452 253.470533,32.2363077 C252.847679,32.7441171 252.058242,32.9988059 251.257886,32.9501538 C250.156933,32.9950494 249.073846,32.6597631 248.188571,32 C247.434153,31.4215501 246.959131,30.5484093 246.881543,29.5975385 L244.228324,29.5975385 C244.382241,31.1466586 245.178476,32.5587193 246.42139,33.4867692 C247.838647,34.4667429 249.534721,34.9558195 251.25299,34.88 C252.706636,34.9546215 254.139965,34.5118938 255.301352,33.6295385 C256.298368,32.8609378 256.868229,31.6579746 256.833562,30.3950769 C256.870026,29.4798043 256.582037,28.5812615 256.020952,27.8596923 Z" id="Path" fill="#FFFFFF"></path>
                    <path d="M101.160095,29.0461538 C100.985078,30.116985 100.393201,31.0736242 99.5152952,31.7046154 C98.5425228,32.3898589 97.3732995,32.7357038 96.1865333,32.6892308 C94.8115213,32.7263635 93.4758963,32.2250827 92.4612571,31.2910769 C91.9202909,30.8016265 91.515386,30.1789382 91.2864,29.4843077 L91.6437524,29.2923077 L96.5389905,26.7027692 L98.0809905,25.8904615 L99.6719429,25.0535385 L100.553086,24.5612308 L101.292267,24.1723077 L101.326533,24.1723077 L102.432857,23.6307692 L103.730095,22.9513846 C103.624853,22.6683162 103.502236,22.3920925 103.362952,22.1243077 C103.328686,22.0553846 103.294419,21.9864615 103.255257,21.9175385 C103.109708,21.6490264 102.946156,21.3907886 102.765733,21.1446154 C102.158688,20.3432221 101.389528,19.6804324 100.509029,19.2 C99.2190713,18.5046539 97.7721003,18.1569663 96.3089143,18.1907692 C94.8385514,18.1628438 93.3851264,18.5100588 92.0843238,19.2 C90.8652624,19.86949 89.8654155,20.8801532 89.2059238,22.1095385 C88.4904221,23.4734713 88.1332009,24.9986006 88.1681333,26.5403077 C88.130797,28.0822668 88.488159,29.6079976 89.2059238,30.9710769 C89.8688076,32.1941608 90.8681562,33.1991926 92.0843238,33.8658462 C93.3873643,34.5472508 94.8406691,34.8859691 96.3089143,34.8504615 C97.5922638,34.8718024 98.8654515,34.6184018 100.043981,34.1070769 C101.102295,33.6510098 102.030976,32.9370017 102.746152,32.0295385 C103.426311,31.1592182 103.885043,30.1351417 104.082552,29.0461538 L101.160095,29.0461538 Z M90.8458286,25.8116923 C90.9274159,24.0295385 91.4822095,22.6789744 92.5102095,21.76 C93.5541519,20.8276449 94.9134267,20.3326341 96.3089143,20.3766154 C97.2155336,20.36764 98.1119137,20.5698406 98.9278667,20.9673846 C99.5562743,21.2741359 100.099464,21.7324688 100.509029,22.3015385 L96.1669524,24.6153846 L93.7193333,25.92 L93.0633714,26.2695385 L90.8996762,27.4116923 C90.8996762,27.3181538 90.8996762,27.2246154 90.8996762,27.1310769 C90.8472356,26.695041 90.8292301,26.2555118 90.8458286,25.8166154 L90.8458286,25.8116923 Z" id="Shape" fill="#FFFFFF" fill-rule="nonzero"></path>
                    <path d="M31.7260381,0.275692308 C18.9505815,0.271709632 7.43087684,8.00815921 2.539177,19.8771218 C-2.35252284,31.7460843 0.347259495,45.4098293 9.37947144,54.4962234 C18.4116834,63.5826174 31.9973255,66.3019892 43.8006879,61.3861506 C55.6040503,56.470312 63.3003232,44.8874948 63.3003238,32.0393846 C63.3003246,14.5006262 49.1656182,0.281128997 31.7260381,0.275692308 Z" id="Path" fill="url(#linearGradient-1)"></path>
                    <rect id="Rectangle" fill="#FFFFFF" x="29.3028952" y="7.99507692" width="3.46582857" height="7.08923077"></rect>
                    <path d="M36.0583238,35.6923077 C34.8492,35.6923077 34.007219,35.4510769 33.5079048,34.9636923 C33.0085905,34.4763077 32.7687238,33.5852308 32.7687238,32.2658462 L32.7687238,18.0233846 L29.3028952,18.0233846 L29.3028952,32.1969231 C29.3028952,34.5206154 29.8234222,36.1780513 30.8644762,37.1692308 C31.9120571,38.1538462 33.4883238,38.6461538 35.6030667,38.6461538 L38.1828571,38.6461538 L38.1828571,35.6923077 L36.0583238,35.6923077 Z" id="Path" fill="#FFFFFF"></path>
                    <rect id="Rectangle" fill="#FFFFFF" x="32.7687238" y="15.0892308" width="5.35539048" height="2.93907692"></rect>
                    <path d="M44.2970095,15.1483077 L42.5885714,18.0184615 C48.5530513,22.6790241 50.9140269,30.6359549 48.4645405,37.8215807 C46.0150542,45.0072066 39.2963765,49.8336981 31.7431714,49.8336981 C24.1899664,49.8336981 17.4712886,45.0072066 15.0218023,37.8215807 C12.572316,30.6359549 14.9332915,22.6790241 20.8977714,18.0184615 L19.1746476,15.1483077 C11.9346901,20.5932616 8.97452828,30.0884107 11.827379,38.7157392 C14.6802297,47.3430677 22.7051458,53.1642819 31.745619,53.1642819 C40.7860923,53.1642819 48.8110083,47.3430677 51.6638591,38.7157392 C54.5167098,30.0884107 51.556548,20.5932616 44.3165905,15.1483077 L44.2970095,15.1483077 Z" id="Path" fill="#FFFFFF"></path>
                </g>
            </g>
        </g>
    </g>
</svg>