<?xml version="1.0" encoding="UTF-8"?>
<svg width="32px" height="32px" viewBox="0 0 32 32" version="1.1" xmlns="http://www.w3.org/2000/svg" xmlns:xlink="http://www.w3.org/1999/xlink">
    <!-- Generator: Sketch 52.5 (67469) - http://www.bohemiancoding.com/sketch -->
    <title>Group 23</title>
    <desc>Created with Sketch.</desc>
    <g id="Article-page" stroke="none" stroke-width="1" fill="none" fill-rule="evenodd">
        <g id="Techlicious-ArticlePage-1.1" transform="translate(-1036.000000, -3678.000000)">
            <g id="Group-5" transform="translate(923.000000, 3678.000000)">
                <g id="Group-22" transform="translate(60.000000, 0.000000)">
                    <g id="Group-23" transform="translate(53.000000, 0.000000)">
                        <rect id="Rectangle-Copy-3" fill="#4A90E2" x="0" y="0" width="32" height="32"></rect>
                        <path d="M14.3465,24 C20.76145,24 24.27025,18.2284248 24.27025,13.22387 C24.27025,13.0595744 24.27025,12.8962018 24.26005,12.7337522 C24.9426,12.198407 25.53165,11.5338406 26,10.7732811 C25.3642,11.0797201 24.68845,11.2809361 23.9974,11.369545 C24.725,10.8960413 25.26985,10.1520961 25.5308,9.27431455 C24.8457,9.71551284 24.09685,10.0265669 23.3157,10.1936315 C21.9948,8.66882065 19.78565,8.59497993 18.3806,10.0293359 C17.47535,10.9541909 17.0903,12.3331663 17.37165,13.6484542 C14.5675,13.4952347 11.9546,12.0571867 10.1832,9.69151461 C9.25755,11.4221565 9.731,13.635532 11.26355,14.7468349 C10.7085,14.7292977 10.16535,14.5668481 9.68,14.2733312 L9.68,14.3213277 C9.68085,16.1239643 10.8513,17.6764654 12.4782,18.0336699 C11.9648,18.1859664 11.4259,18.2081186 10.904,18.0982805 C11.36045,19.6415515 12.6703,20.6983968 14.16205,20.7288561 C12.927,21.7829324 11.40125,22.355198 9.83045,22.353352 C9.55335,22.3524289 9.27625,22.3348918 9,22.2988944 C10.59545,23.4101973 12.451,24 14.3465,23.997231" id="twitter-[#154]" fill="#FFFFFF"></path>
                    </g>
                </g>
            </g>
        </g>
    </g>
</svg>