<?xml version="1.0" encoding="UTF-8"?>
<svg width="15px" height="13px" viewBox="0 0 15 13" version="1.1" xmlns="http://www.w3.org/2000/svg" xmlns:xlink="http://www.w3.org/1999/xlink">
    <!-- Generator: Sketch 52.5 (67469) - http://www.bohemiancoding.com/sketch -->
    <title>twitter-logo-silhouette</title>
    <desc>Created with Sketch.</desc>
    <g id="Symbols" stroke="none" stroke-width="1" fill="none" fill-rule="evenodd">
        <g id="Footer" transform="translate(-1468.000000, -330.000000)" fill="#00AEEF">
            <g id="Group-2">
                <g id="social-" transform="translate(1413.000000, 327.000000)">
                    <g id="twitter-logo-silhouette" transform="translate(55.000000, 3.000000)">
                        <path d="M15,1.53810456 C14.4479158,1.7991145 13.8555373,1.97612845 13.2331344,2.05515581 C13.8686501,1.6491142 14.3551215,1.00507524 14.5856856,0.240010943 C13.9895572,0.616031574 13.3315414,0.889070826 12.6304128,1.03708368 C12.0689658,0.398039504 11.2703616,0 10.3845758,0 C8.68521027,0 7.30734037,1.47011279 7.30734037,3.28225033 C7.30734037,3.53925921 7.33452179,3.79027959 7.38702187,4.03031668 C4.83000789,3.89328712 2.56262674,2.58619767 1.04509975,0.600027358 C0.779829706,1.08407645 0.628922596,1.64809432 0.628922596,2.25016143 C0.628922596,3.38925891 1.17257545,4.39433415 1.99742973,4.98235835 C1.49313969,4.96436668 1.0188497,4.81635383 0.603628437,4.57032823 L0.603628437,4.6113325 C0.603628437,6.20145076 1.66468409,7.52854548 3.07159816,7.83058584 C2.81382813,7.90459226 2.54201396,7.94559653 2.26081252,7.94559653 C2.06211121,7.94559653 1.86995404,7.92459753 1.68154687,7.88458699 C2.07333672,9.18968899 3.2093925,10.1387495 4.5553996,10.1647694 C3.50277533,11.0448444 2.17551826,11.5678841 0.733922768,11.5678841 C0.485540009,11.5678841 0.240882747,11.5518799 0,11.5228788 C1.3619385,12.4559612 2.9788284,13 4.71662535,13 C10.3771248,13 13.4712475,7.99761023 13.4712475,3.65929083 L13.4609289,3.23426383 C14.0654887,2.77419491 14.5885042,2.19616028 15,1.53810456 Z" id="Path"></path>
                    </g>
                </g>
            </g>
        </g>
    </g>
</svg>