<?xml version="1.0" encoding="UTF-8"?>
<svg width="19px" height="13px" viewBox="0 0 19 13" version="1.1" xmlns="http://www.w3.org/2000/svg" xmlns:xlink="http://www.w3.org/1999/xlink">
    <!-- Generator: Sketch 52.5 (67469) - http://www.bohemiancoding.com/sketch -->
    <title>youtube</title>
    <desc>Created with Sketch.</desc>
    <g id="Symbols" stroke="none" stroke-width="1" fill="none" fill-rule="evenodd">
        <g id="Footer" transform="translate(-1498.000000, -331.000000)" fill="#00AEEF" fill-rule="nonzero">
            <g id="Group-2">
                <g id="social-" transform="translate(1413.000000, 327.000000)">
                    <g id="youtube" transform="translate(85.000000, 4.000000)">
                        <path d="M18.1925,1.25272727 C17.677125,0.340363636 17.1178125,0.172545455 15.979,0.108727273 C14.841375,0.0319090909 11.9806875,0 9.502375,0 C7.0193125,0 4.1574375,0.0319090909 3.021,0.107545455 C1.8845625,0.172545455 1.3240625,0.339181818 0.8039375,1.25272727 C0.273125,2.16390909 0,3.73336364 0,6.49645455 C0,6.49881818 0,6.5 0,6.5 C0,6.50236364 0,6.50354545 0,6.50354545 L0,6.50590909 C0,9.25718182 0.273125,10.8384545 0.8039375,11.7401818 C1.3240625,12.6525455 1.883375,12.818 3.0198125,12.8948182 C4.1574375,12.961 7.0193125,13 9.502375,13 C11.9806875,13 14.841375,12.961 15.9801875,12.896 C17.119,12.8191818 17.6783125,12.6537273 18.1936875,11.7413636 C18.72925,10.8396364 19,9.25836364 19,6.50709091 C19,6.50709091 19,6.50354545 19,6.50118182 C19,6.50118182 19,6.49881818 19,6.49763636 C19,3.73336364 18.72925,2.16390909 18.1925,1.25272727 Z M7.125,10.0454545 L7.125,2.95454545 L13.0625,6.5 L7.125,10.0454545 Z" id="Shape"></path>
                    </g>
                </g>
            </g>
        </g>
    </g>
</svg>