<svg data-name="ic_account_box copy" xmlns="http://www.w3.org/2000/svg" width="18" height="18"><g data-name="Icon 24px"><path d="M14.25 15.75H3.75a1.5 1.5 0 01-1.5-1.5V3.75a1.5 1.5 0 011.5-1.5h10.5a1.5 1.5 0 011.5 1.5v10.5a1.5 1.5 0 01-1.5 1.5zM9 10.425a8.018 8.018 0 00-2.813.6c-.769.325-1.687.885-1.687 1.725v.75h9v-.75c0-.84-.918-1.4-1.687-1.725a8.018 8.018 0 00-2.813-.6zM9 4.5a2.25 2.25 0 102.25 2.25A2.253 2.253 0 009 4.5z" fill="#fff"/><path data-name="Shape" d="M0 0h18v18H0z" fill="none"/></g></svg>